<?xml version="1.0" encoding="utf-8"?>
<!-- Generator: Adobe Illustrator 25.2.1, SVG Export Plug-In . SVG Version: 6.00 Build 0)  -->
<svg version="1.0" xmlns="http://www.w3.org/2000/svg" xmlns:xlink="http://www.w3.org/1999/xlink" x="0px" y="0px"
	 viewBox="0 0 234.33 130" style="enable-background:new 0 0 234.33 130;" xml:space="preserve">
<style type="text/css">
	.st0{opacity:0.54;}
	.st1{clip-path:url(#SVGID_2_);}
	.st2{opacity:0.38;fill:url(#SVGID_3_);}
	.st3{fill:#00544C;stroke:#AA8941;stroke-miterlimit:10;}
	.st4{fill:#00A89B;stroke:#FFD15F;stroke-width:0.75;stroke-miterlimit:10;}
	.st5{display:none;}
	.st6{display:inline;}
	.st7{fill:none;stroke:#FFD15F;stroke-miterlimit:10;}
	.st8{opacity:0.67;}
	.st9{clip-path:url(#SVGID_4_);}
	.st10{opacity:0.67;fill:#32AFFC;stroke:#000000;stroke-width:0.25;stroke-miterlimit:10;}
	.st11{opacity:0.67;fill:#3279E0;stroke:#000000;stroke-width:0.25;stroke-miterlimit:10;}
	.st12{opacity:0.67;fill:#1696D6;stroke:#000000;stroke-width:0.25;stroke-miterlimit:10;}
	.st13{opacity:0.67;fill:#428099;stroke:#000000;stroke-width:0.25;stroke-miterlimit:10;}
	.st14{opacity:0.67;fill:none;stroke:#000000;stroke-width:0.25;stroke-miterlimit:10;}
</style>
<g id="Layer_3">
	<g class="st0">
		<g>
			<defs>
				<polygon id="SVGID_1_" points="63.14,16.23 58.52,23.26 70.53,30.77 58.21,50.93 69.97,58.32 60.25,75.15 72.22,82.96 
					64.55,95.49 76.44,103.09 73.14,109 84.89,116.04 89.7,108.42 102.11,115.6 108.19,106.68 120.3,113.79 124.59,107.89 
					136.77,114.99 155.07,85.85 155.77,84.79 143.24,76.7 155.07,59.1 157.55,55.28 145.71,47.62 143.6,50.72 130.93,42.42 
					142.05,25.45 130.86,18.13 127.65,22.75 114.96,14.27 115.51,13.34 107.13,7.71 104.18,5.89 96.77,16.47 85.24,8.63 
					74.83,23.69 				"/>
			</defs>
			<clipPath id="SVGID_2_">
				<use xlink:href="#SVGID_1_"  style="overflow:visible;"/>
			</clipPath>
			<g class="st1">
			</g>
		</g>
	</g>
	<radialGradient id="SVGID_3_" cx="107.75" cy="60.965" r="52.5032" gradientUnits="userSpaceOnUse">
		<stop  offset="0" style="stop-color:#FFFFFF"/>
		<stop  offset="1" style="stop-color:#000000"/>
	</radialGradient>
	<polygon class="st2" points="62.88,16.23 58.52,23.26 70.53,30.77 57.95,50.93 69.71,58.32 60,75.15 71.96,82.96 64.29,95.49 
		76.19,103.09 72.88,109 84.63,116.04 89.7,108.42 102.11,115.6 108.19,106.68 120.3,113.79 124.59,107.89 136.77,114.99 155,86.24 
		155.77,84.79 142.99,76.7 154.81,59.1 157.55,55.28 145.45,47.62 143.34,50.72 130.67,42.42 141.79,25.45 130.6,18.13 
		127.65,22.75 114.96,14.27 115.25,13.34 106.88,7.71 104.18,5.89 96.77,16.47 85.24,8.63 74.57,23.69 	"/>
</g>
<g id="Layer_1">
	<g id="Layer_3_1_">
		<path class="st3" d="M148.11,98.21c-0.87-1.1-5.35,2.57-5.5,2.75c-0.38,0.44-3.96,4.36-5.56,5.41c-1.97,1.28-4.68,1.66-7.03,1.48
			c-0.86-0.07-1.56-0.26-2.18-0.73c-1.24-0.96-1.94-2.44-1.91-4.01c0.03-1.99,0.26-3.97,0.68-5.92l6.52-30.23l0.27-1.33
			c0.18-0.94,0.27-1.58,0.27-1.94c0.02-0.43-0.12-0.85-0.38-1.2c-0.25-0.32-0.61-0.47-1.06-0.47c-0.71,0-1.51,0.43-2.39,1.29
			c-0.89,0.86-2,2.3-3.34,4.33c-2.07,3.09-4.34,7.38-6.8,12.88c-1.92,4.33-3.56,8.54-4.92,12.63c-1.33,3.98-2.44,8.03-3.32,12.14
			h-3.16l8.81-41.26c0.28-1.29,0.42-2.3,0.42-3.04c0-0.33-0.07-0.65-0.19-0.95c-0.1-0.27-0.28-0.51-0.51-0.68
			c-0.22-0.15-0.48-0.23-0.74-0.23c-1.19,0-2.65,1.16-4.37,3.48c-1.72,2.32-3.76,5.92-6.11,10.8c-1.11,2.2-2.19,4.51-3.23,6.91
			c-1.04,2.4-1.96,4.65-2.77,6.72c-0.81,2.07-1.72,4.61-2.73,7.6c-1.47,4.36-2.53,7.9-3.19,10.64h-3.19l0.11-0.53l1.64-6.5
			c0.58-2.48,1.09-4.69,1.52-6.61c2-9.07,3.47-16.47,4.41-22.22c0.78-4.5,1.17-7.76,1.17-9.76c0-1.47-0.22-2.6-0.67-3.4
			c-0.44-0.8-1.06-1.2-1.84-1.2c-1.92,0-3.63,2.56-5.13,7.67c-0.73,2.51-1.73,5.31-0.67,7.71c0.39,0.88,0.49,1.17,1.36,2.43
			l-1.36-0.1c-1.26-0.19-3.89-2.53-3.5-4.86c0.44-2.66,0.46-3.28,1.3-5.49c1-2.63,2.19-4.72,3.57-6.25c1.38-1.53,2.78-2.3,4.2-2.3
			c1.62,0,2.89,0.86,3.82,2.58s1.39,4.08,1.39,7.07c0,2.51-0.23,5.36-0.68,8.55c-0.13,0.94-0.53,3.32-1.22,7.14l-1.52,8.28
			l0.23-0.72c1.82-4.96,4.47-10.81,7.94-17.55c2.18-4.18,4.2-7.34,6.06-9.48c1.86-2.14,3.55-3.21,5.07-3.21
			c0.93-0.02,1.81,0.4,2.39,1.12c0.63,0.75,0.95,1.7,0.95,2.87c0,1.19-0.24,2.91-0.72,5.17l-4.41,21.04
			c0.33-0.94,1.09-2.74,2.28-5.39c3.47-7.7,6.43-13.25,8.89-16.66c2.46-3.41,4.72-5.11,6.8-5.11c1.04,0,1.87,0.36,2.49,1.08
			c0.62,0.72,0.93,1.68,0.93,2.87c0,0.96-0.22,2.42-0.65,4.37l-6.9,32.82c-0.39,1.86,0.02,3.5,2.4,3.83h0.01
			c3.01,0.08,3.43-0.34,6.05-2.87c0.02-0.02,0.05-0.05,0.1-0.1c1.2-1.11,2.5-2.1,3.89-2.95C144.6,97.16,148.85,96.28,148.11,98.21"
			/>
		<g id="Layer_1_1_">
			<path class="st3" d="M70.53,30.77l1.16-0.45c1.97-0.76,1.97-0.76,4.58-2.4l4.08-3.31c0.76-0.56,2.45-2.02,3.13-2.67
				c1.46-1.4,4.88-4.2,8.94-4.23c1.27-0.01,2.79,1.08,3.25,1.64c1.22,1.5,0.94,2,0.9,6.07c0,0.52-0.05,1.04-0.13,1.56
				c-0.01,0.06-0.02,0.12-0.03,0.18l-0.45,3l-0.01,0.05l0,0c-0.02,0.18,0.11,0.34,0.29,0.36c0.1,0.01,0.2-0.02,0.27-0.09
				c1.77-1.73,3.63-3.37,5.58-4.89c2.09-1.62,3.98-2.82,5.68-3.61c1.7-0.79,3.25-1.18,4.67-1.18c1.49,0,2.68,0.51,3.55,1.52
				s1.31,2.41,1.31,4.18c0,2-0.68,4.25-2.03,6.74c-1.36,2.49-3.29,5.06-5.79,7.69c-2.33,2.47-4.49,4.43-6.47,5.88
				c-0.15,0.11-0.18,0.31-0.07,0.46c0.07,0.09,0.17,0.14,0.28,0.13c0.11-0.01,0.19-0.01,0.22-0.01c2.73,0,4.98,0.81,6.72,2.43
				c1.75,1.62,2.62,3.72,2.63,6.31c0,2.58-0.75,5.13-2.24,7.64c-1.49,2.51-3.56,4.66-6.19,6.46c-2.91,2-6.31,3-10.18,3
				c-2.57,0-4.57-1.13-5.4-2.4c-1.46-2.24-0.49-5.35,0.19-7.1l1.43,4.12l0.59,1.7c0.17-0.04,0.34,0.05,0.39,0.22
				c0.28,0.9,0.62,1.08,0.81,1.24c1.04,0.83,2.47,0.82,3.76,0.82c2.28,0,4.4-0.69,6.36-2.07c1.96-1.38,3.53-3.22,4.71-5.51
				c1.17-2.27,1.78-4.79,1.77-7.35c0-1.65-0.3-3.06-0.89-4.24c-0.56-1.14-1.44-2.09-2.53-2.73c-1.09-0.65-2.37-0.97-3.84-0.97
				c-0.69,0.01-1.38,0.1-2.05,0.26c-0.18,0.04-0.35-0.07-0.39-0.25c-0.01-0.05-0.01-0.09,0-0.14l0.25-1.21
				c0.02-0.09,0.08-0.17,0.16-0.22c2.21-1.28,4.37-2.92,6.48-4.92c2.15-2.04,3.96-4.17,5.43-6.4c1.95-2.94,2.92-5.62,2.93-8.05
				c0-1.47-0.39-2.65-1.16-3.53c-0.77-0.89-1.79-1.33-3.06-1.33c-2.28,0-5.22,1.48-8.81,4.44c-2.43,2.03-4.36,3.95-5.8,5.75
				c-0.03,0.04-0.06,0.1-0.07,0.15l-0.1,0.6c-0.41,2.76-0.99,5.76-1.73,8.98c-0.74,3.23-1.64,6.62-2.7,10.18
				c-1.05,3.56-2.1,6.79-3.13,9.71c-1.22,3.39-2.39,5.91-3.53,7.54s-2.27,2.45-3.38,2.45c-1.72,0-2.58-1.44-2.58-4.33
				c0-1.92,0.36-4.4,1.08-7.43c0.7-2.95,1.61-5.85,2.72-8.68c2.59-6.62,5.79-12.14,9.59-16.53c0.04-0.05,0.07-0.1,0.08-0.16
				c0.22-1.47,0.45-3.22,0.67-5.23c0.24-2.36,0.22-1.39,0.52-5.47c0.12-1.59-0.18-4.59-1.77-4.63c-2.64-0.06-11.45,7.32-15.57,9.64
				C70.64,32.95,70.53,30.77,70.53,30.77z M91.17,39.49c0.03-0.18-0.1-0.35-0.27-0.37c-0.12-0.02-0.24,0.03-0.31,0.12
				c-1.65,2.16-3.23,4.71-4.76,7.65c-1.73,3.32-3.16,6.79-4.28,10.37c-0.64,2.07-1.18,4.18-1.61,6.31
				c-0.42,2.07-0.63,3.67-0.63,4.79c0,1.6,0.39,2.39,1.18,2.39c0.56-0.03,1.09-0.42,1.6-1.2c0.51-0.77,1.14-2.11,1.9-4.01
				c0.4-1.01,0.87-2.29,1.41-3.84c0.53-1.54,1.02-3.03,1.46-4.46c0.44-1.43,0.92-3.11,1.44-5.03c0.52-1.92,0.91-3.42,1.16-4.48
				C90.23,44.53,90.8,41.79,91.17,39.49z"/>
		</g>
	</g>
	<g id="Layer_1-2">
		<g id="Layer_2_1_">
			<path class="st4" d="M130.27,102.71L130.27,102.71c3.02,0.08,3.43-0.34,6.06-2.87c0.02-0.02,0.05-0.05,0.1-0.1
				c1.2-1.11,2.5-2.1,3.89-2.95c2.44-1.49,6.69-2.38,5.95-0.44l0,0c-0.87-1.1-5.35,2.57-5.5,2.75c-0.38,0.44-3.96,4.36-5.56,5.41
				c-1.97,1.28-4.68,1.66-7.03,1.48c-0.86-0.07-1.56-0.26-2.18-0.73c-1.24-0.96-1.94-2.44-1.91-4.01c0.03-1.99,0.26-3.97,0.68-5.92
				l6.52-30.23l0.27-1.33c0.18-0.94,0.27-1.58,0.27-1.94c0.02-0.43-0.12-0.85-0.38-1.2c-0.25-0.32-0.61-0.47-1.06-0.47
				c-0.71,0-1.51,0.43-2.39,1.29c-0.89,0.86-2,2.3-3.34,4.33c-2.07,3.09-4.34,7.38-6.8,12.88c-1.92,4.33-3.56,8.54-4.92,12.63
				c-1.33,3.98-2.44,8.03-3.32,12.14h-3.16l8.81-41.26c0.28-1.29,0.42-2.3,0.42-3.04c0-0.33-0.07-0.65-0.19-0.95
				c-0.1-0.27-0.28-0.51-0.51-0.68c-0.22-0.15-0.48-0.23-0.74-0.23c-1.19,0-2.65,1.16-4.37,3.48c-1.72,2.32-3.76,5.92-6.11,10.8
				c-1.11,2.2-2.19,4.51-3.23,6.91c-1.04,2.4-1.96,4.65-2.77,6.72c-0.81,2.07-1.72,4.61-2.73,7.6c-1.47,4.36-2.53,7.9-3.19,10.64
				h-3.19l0.11-0.53l1.64-6.5c0.58-2.48,1.09-4.69,1.52-6.61c2-9.07,3.47-16.47,4.41-22.22c0.78-4.5,1.17-7.76,1.17-9.76
				c0-1.47-0.22-2.6-0.67-3.4s-1.06-1.2-1.84-1.2c-1.92,0-3.63,2.56-5.13,7.67c-0.73,2.51-1.73,5.31-0.67,7.71
				c0.39,0.88,0.43,0.95,1.31,2.21l-1.31,0.12c-1.26-0.19-3.89-2.53-3.5-4.86c0.44-2.66,0.46-3.28,1.3-5.49
				c1-2.63,2.19-4.72,3.57-6.25c1.38-1.53,2.78-2.3,4.2-2.3c1.62,0,2.89,0.86,3.82,2.58s1.39,4.08,1.39,7.07
				c0,2.51-0.23,5.36-0.68,8.55c-0.13,0.94-0.53,3.32-1.22,7.14l-1.52,8.28l0.23-0.72c1.82-4.96,4.47-10.81,7.94-17.55
				c2.18-4.18,4.2-7.34,6.06-9.48c1.86-2.14,3.55-3.21,5.07-3.21c0.93-0.02,1.81,0.4,2.39,1.12c0.63,0.75,0.95,1.7,0.95,2.87
				c0,1.19-0.24,2.91-0.72,5.17l-4.41,21.04c0.33-0.94,1.09-2.74,2.28-5.39c3.47-7.7,6.43-13.25,8.89-16.66
				c2.46-3.41,4.72-5.11,6.8-5.11c1.04,0,1.87,0.36,2.49,1.08c0.62,0.72,0.93,1.68,0.93,2.87c0,0.96-0.22,2.42-0.65,4.37l-6.9,32.82
				C127.48,100.74,127.89,102.38,130.27,102.71z"/>
		</g>
		<g id="Layer_1-3">
			<path class="st4" d="M88.72,65.61c0.7,2.19,1.43,3.41,1.63,3.57c1.04,0.83,2.47,0.82,3.76,0.82c2.28,0,4.4-0.69,6.36-2.07
				c1.96-1.38,3.53-3.22,4.71-5.51c1.17-2.27,1.78-4.79,1.77-7.35c0-1.65-0.3-3.06-0.89-4.24c-0.56-1.14-1.44-2.09-2.53-2.73
				c-1.09-0.65-2.37-0.97-3.84-0.97c-0.69,0.01-1.38,0.1-2.05,0.26c-0.18,0.04-0.35-0.07-0.39-0.25c-0.01-0.05-0.01-0.09,0-0.14
				l0.25-1.21c0.02-0.09,0.08-0.17,0.16-0.22c2.21-1.28,4.37-2.92,6.48-4.92c2.15-2.04,3.96-4.17,5.43-6.4
				c1.95-2.94,2.92-5.62,2.93-8.05c0-1.47-0.39-2.65-1.16-3.53c-0.77-0.89-1.79-1.33-3.06-1.33c-2.28,0-5.22,1.48-8.81,4.44
				c-2.43,2.03-4.36,3.95-5.8,5.75c-0.03,0.04-0.06,0.1-0.07,0.15l-0.1,0.6c-0.41,2.76-0.99,5.76-1.73,8.98
				c-0.74,3.23-1.64,6.62-2.7,10.18c-1.05,3.56-2.1,6.79-3.13,9.71c-1.22,3.39-2.39,5.91-3.53,7.54s-2.27,2.45-3.38,2.45
				c-1.72,0-2.58-1.44-2.58-4.33c0-1.92,0.36-4.4,1.08-7.43c0.7-2.95,1.61-5.85,2.72-8.68c2.59-6.62,5.79-12.14,9.59-16.53
				c0.04-0.05,0.07-0.1,0.08-0.16c0.22-1.47,0.45-3.22,0.67-5.23c0.24-2.36,0.22-1.39,0.52-5.47c0.12-1.59-0.18-4.59-1.77-4.63
				c-2.64-0.06-11.45,7.32-15.57,9.64c-4.96,2.79-5.07,0.61-5.07,0.61l1.16-0.45c1.97-0.76,1.97-0.76,4.58-2.4l4.07-3.31
				c0.76-0.56,2.45-2.02,3.13-2.67c1.46-1.4,4.88-4.2,8.94-4.23c1.27-0.01,2.79,1.08,3.25,1.64c1.22,1.5,0.94,2,0.9,6.07
				c0,0.52-0.05,1.04-0.13,1.56c-0.01,0.06-0.02,0.12-0.03,0.18l-0.45,3l-0.01,0.05l0,0c-0.02,0.18,0.11,0.34,0.29,0.36
				c0.1,0.01,0.2-0.02,0.27-0.09c1.77-1.73,3.63-3.37,5.58-4.89c2.09-1.62,3.98-2.82,5.68-3.61c1.7-0.79,3.25-1.18,4.67-1.18
				c1.49,0,2.68,0.51,3.55,1.52c0.88,1.01,1.31,2.41,1.31,4.18c0,2-0.68,4.25-2.03,6.74c-1.36,2.49-3.29,5.06-5.79,7.69
				c-2.33,2.47-4.49,4.43-6.47,5.88c-0.15,0.11-0.18,0.31-0.07,0.46c0.07,0.09,0.17,0.14,0.28,0.13c0.11-0.01,0.19-0.01,0.22-0.01
				c2.73,0,4.98,0.81,6.72,2.43c1.75,1.62,2.62,3.72,2.63,6.31c0,2.58-0.75,5.13-2.24,7.64c-1.49,2.51-3.56,4.66-6.19,6.46
				c-2.91,2-6.31,3-10.18,3c-2.57,0-4.58-0.67-5.41-1.94c-1.46-2.24-1.3-2.36-1.2-3.73 M89.32,37.64c0.03-0.18-0.1-0.35-0.27-0.37
				c-0.12-0.02-0.24,0.03-0.31,0.12c-1.65,2.16-3.23,4.71-4.76,7.65c-1.73,3.32-3.16,6.79-4.28,10.37
				c-0.64,2.07-1.18,4.18-1.61,6.31c-0.42,2.07-0.63,3.67-0.63,4.79c0,1.6,0.39,2.39,1.18,2.39c0.56-0.03,1.09-0.42,1.6-1.2
				c0.51-0.77,1.14-2.11,1.9-4.01c0.4-1.01,0.87-2.29,1.41-3.84c0.53-1.54,1.02-3.03,1.46-4.46c0.44-1.43,0.92-3.11,1.44-5.03
				c0.52-1.92,0.91-3.42,1.16-4.48C88.38,42.69,88.95,39.94,89.32,37.64z"/>
		</g>
	</g>
	<g id="Layer_8" class="st5">
		<g id="Layer_2-2" class="st6">
			<path class="st7" d="M101.58,68.51c0.08-0.48,0.16-0.95,0.24-1.41c0.48-2.78,0.74-4.32,0.74-5.56c0-0.91-0.03-1.74-0.3-2.23
				c-0.16-0.33-0.29-0.7-0.73-0.79c-1.16-0.24-2.11,1.15-3.03,4.31c-0.45,1.55-1.15,3.04-0.49,4.52"/>
			<path class="st7" d="M104.2,68.67c-0.09,0.65-0.24,1.71-0.57,3.57l-0.7,3.68l0.61-1.45c1.13-3.06,1.67-3.87,3.81-8.03
				c1.34-2.58,2.45-4.25,3.6-5.58s2.33-1.98,3.27-1.98c0.59,0,1.38,0.52,1.77,0.98c0.39,0.46,0.53,0.92,0.53,1.64
				c0,0.74-0.11,1.75-0.41,3.15l-2.48,11.62c0.2-0.58,0.44-1.39,1.17-3.03c2.14-4.75,3.66-7.39,5.18-9.49
				c1.52-2.1,2.94-2.99,4.23-2.99c0.64,0,1.45,0.52,1.84,0.96s0.51,0.91,0.51,1.64c0,0.59-0.14,1.75-0.41,2.95l-4.22,19.99
				c-0.24,1.15-0.26,2.03,1.21,2.23l1.08,0.02c0.59-0.11,1.6-0.7,2.14-1.4c0.01-0.01,1.08-0.99,1.11-1.02
				c0.73-0.61,1.52-1.13,2.37-1.56c0.87-0.44,2.09-0.77,2.84-0.47c0.34,0.14,0.52,0.51,0.44,0.87l-0.05,0.23
				c-0.54-0.76-3.1,1.42-3.2,1.53c-0.23,0.27-2.68,2.89-3.6,3.48c-1.29,0.82-2.61,0.91-4.49,0.91c-0.54,0-1.51-0.51-1.85-0.99
				c-0.56-0.78-0.91-1.47-0.9-2.44c0.01-1.15,0.14-2.3,0.39-3.42l3.72-17.08l0.4-1.68c0.11-0.58,0.22-1.06,0.22-1.28
				c0-0.3,0.2-0.83,0.04-1.02c-0.16-0.19-0.33-0.4-0.61-0.4c-0.44,0-0.61-0.01-1.16,0.52c-0.55,0.53-1.24,1.42-2.07,2.67
				c-1.28,1.91-2.68,4.56-4.2,7.95c-1.19,2.67-2.3,5.29-3.14,7.82c-0.84,2.53-1.51,5.3-2.04,7.77l-2.55-0.02l5.21-24.15
				c0.17-0.8,0.37-1.67,0.5-2.54c-0.02-0.1,0.05-0.45,0.07-0.89c0.02-0.51-0.01-0.67-0.16-0.76c-0.15-0.08-0.31-0.18-0.48-0.18
				c-0.74,0-1.27,0.45-2.33,1.88c-1.06,1.43-2.32,3.66-3.78,6.68c-0.69,1.36-1.35,2.78-1.99,4.27c-0.64,1.49-1.21,2.87-1.71,4.15
				c-0.5,1.28-1.21,2.85-1.83,4.69c-0.91,2.69-1.52,5.17-1.93,6.86h-1.31l-1.25-0.03l1.19-4.68c0.36-1.53,0.69-3.12,0.96-4.31
				c0.99-4.47,1.73-8.12,2.28-11.21"/>
			<path class="st7" d="M98.06,69.31c-0.78-0.12-2.59-1.79-2.35-3.24c0.27-1.64,0.4-2.29,0.88-3.7c0.74-2.2,1.12-2.89,1.97-3.83
				c0.85-0.95,1.78-1.31,2.66-1.31c1,0,1.88,0.53,2.45,1.6c0.57,1.06,0.97,2.36,0.97,4.21c0,1.48-0.1,2.96-0.28,4.43"/>
		</g>
	</g>
	<g id="Layer_7" class="st5">
		<g id="Layer_1-4" class="st6">
			<path class="st7" d="M97.45,65.91c0,1.13,0.58,2.11,0.7,2.21c0.64,0.52,1.53,0.5,2.32,0.5c1.41,0,2.72-0.43,3.93-1.28
				c1.21-0.85,2.18-1.99,2.91-3.4c0.72-1.4,1.1-2.96,1.09-4.54c0-1.02-0.18-1.89-0.55-2.62c-0.35-0.7-0.89-1.29-1.56-1.69
				c-0.67-0.4-1.46-0.6-2.37-0.6c-0.43,0.01-0.85,0.06-1.27,0.16c-0.11,0.02-0.22-0.05-0.24-0.16c-0.01-0.03-0.01-0.06,0-0.08
				l0.15-0.75c0.01-0.06,0.05-0.1,0.1-0.13c1.36-0.79,2.7-1.8,4-3.04c1.33-1.26,2.45-2.58,3.36-3.95c1.2-1.81,1.81-3.47,1.81-4.97
				c0-0.91-0.24-1.63-0.72-2.18c-0.48-0.55-0.98-0.57-1.77-0.57c-1.41,0-2.89,0.94-5.11,2.77c-1.5,1.25-1.89,1.49-2.77,2.6
				c-0.02,0.03-0.8,0.78-0.81,0.81l-0.14,0.96c-0.25,1.71-0.44,2.98-0.9,4.97s-1.05,4.1-1.69,6.3c-0.65,2.2-1.34,4.39-1.98,6.19
				c-0.75,2.1-1.51,3.63-2.22,4.63s-1.76,1.52-2.45,1.52c-1.06,0-1.73-1.14-1.73-2.92c0-1.19,0.22-2.72,0.67-4.59
				c0.43-1.82,0.99-3.61,1.68-5.36c1.6-4.09,3.33-7.2,5.67-9.92c0.01-0.02,0.27-0.14,0.38-0.43c0.08-0.22,0.01-0.63,0.02-0.64
				c0.14-0.91,0.18-1.31,0.32-2.55c0.15-1.71,0.02-0.17,0.26-2.53c0.06-0.55,0.48-3.23-0.5-3.45c-1.59-0.37-7.19,4.43-9.74,5.86
				c-3.06,1.72-3.62,0.07-3.62,0.07l1-0.41c1.21-0.47,1.11-0.37,2.72-1.39l2.76-2.25c0.47-0.34,1.68-1.44,2.1-1.84
				c0.9-0.86,3.57-2.5,5.5-2.32c0.86,0.08,1.61,0.67,1.9,1.02c0.76,0.93,0.82,0.75,0.79,3.26c0,0.32-0.05,1.34-0.1,1.66
				c-0.01,0.04-0.13,0.96-0.14,1l-0.05,0.29l0,0c0.09,0.08-0.02,0.2-0.02,0.2c-0.02,0.19-0.25,0.65-0.11,0.52
				c1.21-1.31,1.94-1.72,3-2.73c1.29-1,2.65-1.95,3.7-2.44s2.17-0.83,3.04-0.83c0.92,0,1.86,0.23,2.4,0.86
				c0.54,0.63,1.04,1.68,1.04,2.77c0,1.24-0.1,2.52-1.38,4.58c-0.84,1.54-2.1,3.23-3.65,4.86c-1.47,1.49-2.04,1.99-3.28,2.99
				c-0.16,0.12-0.86,0.45-0.66,0.44c0.07,0,0.5,0.02,0.52,0.02c1.69,0,2.66,0.37,3.81,1.35c1.08,1,1.87,2.37,1.87,3.97
				s-0.49,3.64-1.41,5.19c-0.92,1.55-2.37,2.92-4.16,4.18c-1.86,1.24-4.12,1.71-6.52,1.71c-1.59,0-3.14-1.3-3.65-2.09
				c-0.9-1.38,0.13-3.46,0.55-4.54 M97.35,49.6c0.02-0.1,0.31-0.9,0.28-0.97c-0.03-0.07-0.37,0.59-0.44,0.68
				c-1.02,1.33-1.49,2.28-2.44,4.09c-1.05,2.01-1.91,4.11-2.57,6.27c-0.41,1.31-0.76,2.49-1.02,3.77c-0.26,1.28-0.37,2.34-0.37,3.03
				c0,0.99-0.06,1.18,0.42,1.18c0.34-0.02,0.38,0.02,0.69-0.46c0.31-0.48,0.7-1.3,1.17-2.48c0.25-0.63,0.54-1.42,0.87-2.37
				c0.33-0.95,0.63-1.87,0.9-2.76c0.27-0.88,0.57-1.92,0.89-3.11c0.32-1.19,0.56-2.11,0.72-2.77C96.94,51.75,97.12,51.03,97.35,49.6
				L97.35,49.6z"/>
		</g>
	</g>
</g>
<g id="Layer_2">
	<g class="st8">
		<g>
			<defs>
				<polygon id="SVGID_6_" points="-54.36,-17.41 -53,-16.57 -55.3,-12.72 -55.3,-11.64 -43.57,-4.22 -46.19,0.7 -34.93,7.79 
					-24.47,-8.78 -12.41,-1.03 -25.92,21.96 -14.66,29.09 14.9,-17.32 				"/>
			</defs>
			<clipPath id="SVGID_4_">
				<use xlink:href="#SVGID_6_"  style="overflow:visible;"/>
			</clipPath>
			<g class="st9">
			</g>
		</g>
	</g>
	
		<rect x="-52.07" y="-12.05" transform="matrix(0.8499 0.5269 -0.5269 0.8499 13.5168 29.6671)" class="st10" width="13.49" height="101.22"/>
	
		<rect x="-52.22" y="18.91" transform="matrix(0.8499 0.5269 -0.5269 0.8499 28.0911 33.9077)" class="st11" width="13.49" height="94.71"/>
	
		<rect x="-32.17" y="-14.42" transform="matrix(0.8499 0.5269 -0.5269 0.8499 28.5234 22.6079)" class="st12" width="13.49" height="151.58"/>
	
		<rect x="-28" y="-0.27" transform="matrix(0.8499 0.5269 -0.5269 0.8499 40.0694 23.5207)" class="st13" width="13.49" height="164.73"/>
	
		<rect x="-17.91" y="14.16" transform="matrix(0.8499 0.5269 -0.5269 0.8499 47.4725 19.881)" class="st10" width="13.49" height="158.22"/>
	
		<rect x="-6.58" y="30.21" transform="matrix(0.8499 0.5269 -0.5269 0.8499 54.0098 15.2899)" class="st11" width="13.49" height="144.49"/>
	
		<rect x="12.81" y="14.94" transform="matrix(0.8499 0.5269 -0.5269 0.8499 54.9023 4.4958)" class="st10" width="13.49" height="167.35"/>
	
		<rect x="21.74" y="45.05" transform="matrix(0.8499 0.5269 -0.5269 0.8499 63.1196 1.7507)" class="st12" width="13.49" height="133.24"/>
	
		<rect x="33.3" y="72.11" transform="matrix(0.8499 0.5269 -0.5269 0.8499 69.4912 -3.0224)" class="st13" width="13.49" height="96.72"/>
	
		<rect x="44.39" y="94.3" transform="matrix(0.8499 0.5269 -0.5269 0.8499 76.1988 -7.4264)" class="st12" width="13.49" height="71.5"/>
	
		<rect x="54.68" y="108.24" transform="matrix(0.8499 0.5269 -0.5269 0.8499 83.46 -11.2221)" class="st10" width="13.49" height="65.3"/>
	
		<rect x="72.81" y="108.15" transform="matrix(0.8499 0.5269 -0.5269 0.8499 85.2391 -21.042)" class="st11" width="13.49" height="61.91"/>
	
		<rect x="88.05" y="105.42" transform="matrix(0.8499 0.5269 -0.5269 0.8499 89.0374 -28.643)" class="st10" width="13.49" height="73.1"/>
	
		<rect x="102.34" y="106.04" transform="matrix(0.8499 0.5269 -0.5269 0.8499 93.5035 -35.5101)" class="st13" width="13.49" height="80.67"/>
	
		<rect x="130.32" y="58.57" transform="matrix(0.8499 0.5269 -0.5269 0.8499 88.3827 -52.9121)" class="st12" width="13.49" height="140.23"/>
	
		<rect x="-69.01" y="-1.41" transform="matrix(0.8499 0.5269 -0.5269 0.8499 11.4626 38.7341)" class="st13" width="13.49" height="81.79"/>
	
		<rect x="-79.88" y="-14.31" transform="matrix(0.8499 0.5269 -0.5269 0.8499 4.5244 42.949)" class="st11" width="13.49" height="87.45"/>
	
		<rect x="-90.75" y="-26.88" transform="matrix(0.8499 0.5269 -0.5269 0.8499 -2.2904 47.2008)" class="st10" width="13.49" height="92.91"/>
	
		<rect x="129.73" y="94.03" transform="matrix(0.8499 0.5269 -0.5269 0.8499 102.5005 -48.5543)" class="st10" width="13.49" height="123.24"/>
	<line class="st14" x1="-18.66" y1="-4.46" x2="-71.55" y2="81.85"/>
	<line class="st14" x1="-41" y1="4.55" x2="-83.44" y2="74.47"/>
	<line class="st14" x1="-50.43" y1="-7.96" x2="-96.68" y2="66.26"/>
	<line class="st14" x1="-59.68" y1="-20" x2="-108.36" y2="59.13"/>
	<line class="st14" x1="-20.26" y1="26.18" x2="-70.34" y2="106.57"/>
	<line class="st14" x1="15.02" y1="-2.73" x2="-65.38" y2="125.77"/>
	<line class="st14" x1="22.43" y1="12.27" x2="-64.32" y2="152.31"/>
	<line class="st14" x1="30.95" y1="26.3" x2="-53.26" y2="160.25"/>
	<line class="st14" x1="38.15" y1="41" x2="-37.84" y2="163.89"/>
	<line class="st14" x1="64.04" y1="27.75" x2="-24.87" y2="169.53"/>
	<line class="st14" x1="63.81" y1="55.19" x2="-6.51" y2="168.36"/>
	<line class="st14" x1="65.63" y1="79.43" x2="14.76" y2="161.69"/>
	<line class="st14" x1="69.84" y1="99.58" x2="32.24" y2="160.39"/>
	<line class="st14" x1="78.64" y1="113.15" x2="51.02" y2="157.84"/>
	<line class="st14" x1="96.55" y1="113.22" x2="63.96" y2="165.86"/>
	<line class="st14" x1="114.29" y1="111.05" x2="75.67" y2="173.12"/>
	<line class="st14" x1="130.56" y1="112.34" x2="87.73" y2="180.6"/>
	<line class="st14" x1="174.39" y1="69.33" x2="100.13" y2="188.28"/>
	<line class="st14" x1="169.63" y1="103.7" x2="103.91" y2="207.95"/>
	
		<rect x="19.92" y="-125.15" transform="matrix(0.8359 0.5489 -0.5489 0.8359 -36.5409 -26.8731)" class="st10" width="13.49" height="101.22"/>
	
		<rect x="44.98" y="-133.71" transform="matrix(0.8359 0.5489 -0.5489 0.8359 -38.9111 -42.567)" class="st11" width="13.49" height="94.71"/>
	
		<rect x="48.99" y="-141.9" transform="matrix(0.8359 0.5489 -0.5489 0.8359 -27.14 -41.4453)" class="st12" width="13.49" height="151.58"/>
	
		<rect x="60" y="-138.34" transform="matrix(0.8359 0.5489 -0.5489 0.8359 -20.068 -45.9112)" class="st13" width="13.49" height="163.64"/>
	
		<rect x="70.28" y="-131.6" transform="matrix(0.8359 0.5489 -0.5489 0.8359 -12.5124 -49.8022)" class="st10" width="13.49" height="171.54"/>
	
		<rect x="81.12" y="-127.78" transform="matrix(0.8359 0.5489 -0.5489 0.8359 -5.327 -54.1334)" class="st11" width="13.49" height="183.61"/>
	
		<rect x="96.01" y="-93.89" transform="matrix(0.8359 0.5489 -0.5489 0.8359 -0.8683 -61.7068)" class="st10" width="13.49" height="123.17"/>
	
		<rect x="108.36" y="-68.44" transform="matrix(0.8359 0.5489 -0.5489 0.8359 5.3014 -67.2458)" class="st12" width="13.49" height="87.37"/>
	
		<rect x="124.03" y="-59.43" transform="matrix(0.8359 0.5489 -0.5489 0.8359 9.2413 -75.4362)" class="st13" width="13.49" height="74.34"/>
	
		<rect x="135.77" y="-51.6" transform="matrix(0.8359 0.5489 -0.5489 0.8359 15.8177 -80.4915)" class="st12" width="13.49" height="75.61"/>
	
		<rect x="149.37" y="-43.21" transform="matrix(0.8359 0.5489 -0.5489 0.8359 21.1491 -87.0273)" class="st10" width="13.49" height="70.12"/>
	
		<rect x="155.94" y="-36.92" transform="matrix(0.8359 0.5489 -0.5489 0.8359 31.1985 -87.9529)" class="st11" width="13.49" height="90.23"/>
	
		<rect x="169.04" y="-28.68" transform="matrix(0.8359 0.5489 -0.5489 0.8359 36.8641 -94.0912)" class="st10" width="13.49" height="86.56"/>
	
		<rect x="177.15" y="-33.32" transform="matrix(0.8359 0.5489 -0.5489 0.8359 45.8785 -96.2476)" class="st13" width="13.49" height="123.84"/>
	
		<rect x="199.02" y="-35.42" transform="matrix(0.8359 0.5489 -0.5489 0.8359 45.6535 -109.3905)" class="st12" width="13.49" height="114.14"/>
	
		<rect x="13.63" y="-131.2" transform="matrix(0.8359 0.5489 -0.5489 0.8359 -46.2232 -26.0038)" class="st13" width="13.49" height="81.79"/>
	
		<rect x="-0.08" y="-139.64" transform="matrix(0.8359 0.5489 -0.5489 0.8359 -51.5554 -19.3987)" class="st11" width="13.49" height="87.45"/>
	
		<rect x="-13.58" y="-148.09" transform="matrix(0.8359 0.5489 -0.5489 0.8359 -56.9087 -12.9264)" class="st10" width="13.49" height="92.91"/>
	
		<rect x="203.69" y="-36.4" transform="matrix(0.8359 0.5489 -0.5489 0.8359 56.2194 -109.0252)" class="st10" width="13.49" height="151.81"/>
	<line class="st14" x1="-1.12" y1="-32.25" x2="54.88" y2="-116.57"/>
	<line class="st14" x1="-2.36" y1="-56.31" x2="43.19" y2="-124.25"/>
	<line class="st14" x1="-17.67" y1="-59.59" x2="30.16" y2="-132.8"/>
	<line class="st14" x1="-32.49" y1="-62.9" x2="18.78" y2="-140.39"/>
	<line class="st14" x1="25.99" y1="-46.6" x2="77.81" y2="-125.88"/>
	<line class="st14" x1="14.64" y1="-2.43" x2="97.32" y2="-129.48"/>
	<line class="st14" x1="22.43" y1="12.27" x2="111.36" y2="-125.1"/>
	<line class="st14" x1="30.95" y1="26.3" x2="124.42" y2="-117.31"/>
	<line class="st14" x1="38.15" y1="41" x2="138.31" y2="-112.68"/>
	<line class="st14" x1="68.7" y1="19.01" x2="136.25" y2="-83.99"/>
	<line class="st14" x1="91.47" y1="11.7" x2="139.22" y2="-61.18"/>
	<line class="st14" x1="110.47" y1="8.87" x2="151.34" y2="-53.22"/>
	<line class="st14" x1="121.25" y1="18.29" x2="163.19" y2="-45.44"/>
	<line class="st14" x1="136.86" y1="21.16" x2="175.43" y2="-37.41"/>
	<line class="st14" x1="138.58" y1="46.34" x2="188.15" y2="-29.05"/>
	<line class="st14" x1="153.22" y1="51.56" x2="199.67" y2="-21.49"/>
	<line class="st14" x1="151.26" y1="81.24" x2="217.74" y2="-23.25"/>
	<line class="st14" x1="174.39" y1="69.33" x2="236.26" y2="-24.75"/>
	<line class="st14" x1="169.63" y1="103.7" x2="251.87" y2="-24.09"/>
	
		<rect x="244.42" y="24.43" transform="matrix(0.8359 0.5489 -0.5489 0.8359 86.0295 -124.4669)" class="st10" width="13.49" height="114.41"/>
	
		<rect x="261.25" y="13.42" transform="matrix(0.8359 0.5489 -0.5489 0.8359 89.1848 -133.5903)" class="st11" width="13.49" height="137.87"/>
	
		<rect x="277.11" y="8.77" transform="matrix(0.8359 0.5489 -0.5489 0.8359 92.9989 -141.9303)" class="st12" width="13.49" height="151.58"/>
	
		<rect x="292.74" y="13.72" transform="matrix(0.8359 0.5489 -0.5489 0.8359 96.9646 -150.0901)" class="st13" width="13.49" height="146.79"/>
	
		<rect x="307.05" y="21.66" transform="matrix(0.8359 0.5489 -0.5489 0.8359 101.8145 -157.1984)" class="st10" width="13.49" height="140.02"/>
	
		<rect x="322.56" y="26.87" transform="matrix(0.8359 0.5489 -0.5489 0.8359 105.8618 -165.2611)" class="st11" width="13.49" height="135.06"/>
	
		<rect x="330.5" y="58.69" transform="matrix(0.8359 0.5489 -0.5489 0.8359 114.9902 -167.2818)" class="st10" width="13.49" height="99.95"/>
	
		<rect x="233.14" y="16.9" transform="matrix(0.8359 0.5489 -0.5489 0.8359 79.6947 -119.6171)" class="st13" width="13.49" height="113.13"/>
	
		<rect x="218.13" y="8.07" transform="matrix(0.8359 0.5489 -0.5489 0.8359 75.2334 -111.9763)" class="st11" width="13.49" height="123.52"/>
	
		<rect x="216.71" y="-22.63" transform="matrix(0.8359 0.5489 -0.5489 0.8359 61.7632 -115.156)" class="st10" width="13.49" height="136.67"/>
	<line class="st14" x1="220.1" y1="128.81" x2="283" y2="34.1"/>
	<line class="st14" x1="208.9" y1="120.93" x2="271.3" y2="26.42"/>
	<line class="st14" x1="190.94" y1="121.43" x2="258.28" y2="17.87"/>
	<line class="st14" x1="185.74" y1="102.7" x2="260.85" y2="-10.83"/>
	<line class="st14" x1="230.57" y1="140.08" x2="305.92" y2="24.79"/>
	<line class="st14" x1="242.76" y1="148.24" x2="325.43" y2="21.19"/>
	<line class="st14" x1="259.47" y1="148.64" x2="339.48" y2="25.57"/>
	<line class="st14" x1="275.79" y1="150.46" x2="352.54" y2="33.36"/>
	<line class="st14" x1="292.15" y1="150.8" x2="366.43" y2="37.99"/>
	<line class="st14" x1="309.55" y1="150.26" x2="364.36" y2="66.68"/>
	
		<rect x="178.21" y="119.42" transform="matrix(0.8454 0.5341 -0.5341 0.8454 127.2413 -70.2254)" class="st10" width="13.49" height="130.62"/>
	
		<rect x="169.97" y="177.5" transform="matrix(0.8454 0.5341 -0.5341 0.8454 147.3983 -59.6235)" class="st11" width="13.49" height="94.71"/>
	
		<rect x="190.06" y="144.35" transform="matrix(0.8454 0.5341 -0.5341 0.8454 147.9816 -71.0835)" class="st12" width="13.49" height="151.58"/>
	
		<rect x="198.85" y="159.91" transform="matrix(0.8454 0.5341 -0.5341 0.8454 156.3754 -73.7402)" class="st13" width="13.49" height="146.79"/>
	
		<rect x="208.91" y="174.45" transform="matrix(0.8454 0.5341 -0.5341 0.8454 163.8844 -77.394)" class="st10" width="13.49" height="140.02"/>
	
		<rect x="217.82" y="189.91" transform="matrix(0.8454 0.5341 -0.5341 0.8454 172.1965 -80.1428)" class="st11" width="13.49" height="135.06"/>
	
		<rect x="234.08" y="208.8" transform="matrix(0.8454 0.5341 -0.5341 0.8454 175.4242 -88.6222)" class="st10" width="13.49" height="99.95"/>
	
		<rect x="166.82" y="110.68" transform="matrix(0.8454 0.5341 -0.5341 0.8454 121.194 -65.3877)" class="st13" width="13.49" height="132.04"/>
	
		<rect x="151.86" y="112.15" transform="matrix(0.8454 0.5341 -0.5341 0.8454 116.9924 -57.9397)" class="st11" width="13.49" height="122.02"/>
	
		<rect x="143.09" y="92.51" transform="matrix(0.8454 0.5341 -0.5341 0.8454 108.6253 -55.2884)" class="st10" width="13.49" height="135.06"/>
	<line class="st14" x1="220.1" y1="128.81" x2="150.51" y2="240.22"/>
	<line class="st14" x1="208.9" y1="120.93" x2="138.68" y2="232.75"/>
	<line class="st14" x1="190.94" y1="121.43" x2="125.51" y2="224.43"/>
	<line class="st14" x1="185.74" y1="102.7" x2="113.89" y2="217.2"/>
	<line class="st14" x1="202.26" y1="184.99" x2="151.51" y2="264.95"/>
	<line class="st14" x1="237.79" y1="156.38" x2="156.31" y2="284.2"/>
	<line class="st14" x1="245.07" y1="171.43" x2="166.1" y2="295.17"/>
	<line class="st14" x1="253.47" y1="185.54" x2="178.59" y2="303.85"/>
	<line class="st14" x1="260.55" y1="200.29" x2="188.56" y2="314.57"/>
	<line class="st14" x1="267.25" y1="216.36" x2="213.82" y2="300.83"/>
</g>
</svg>
