<?xml version="1.0" encoding="utf-8"?>
<!-- Generator: Adobe Illustrator 25.2.1, SVG Export Plug-In . SVG Version: 6.00 Build 0)  -->
<svg version="1.0" xmlns="http://www.w3.org/2000/svg" xmlns:xlink="http://www.w3.org/1999/xlink" x="0px" y="0px"
	 viewBox="0 0 307.46 172.91" style="enable-background:new 0 0 307.46 172.91;" xml:space="preserve">
<style type="text/css">
	.st0{display:none;}
	.st1{display:inline;fill:#32AFFC;stroke:#000000;stroke-width:0.25;stroke-miterlimit:10;}
	.st2{display:inline;fill:none;stroke:#000000;stroke-width:0.25;stroke-miterlimit:10;}
	.st3{clip-path:url(#SVGID_2_);}
	.st4{opacity:0.5;fill:url(#SVGID_3_);}
	.st5{clip-path:url(#SVGID_4_);}
	.st6{opacity:0.47;fill:url(#SVGID_5_);}
	.st7{clip-path:url(#SVGID_7_);}
	.st8{opacity:0.4;fill:url(#SVGID_8_);}
	.st9{fill:#32AFFC;stroke:#000000;stroke-width:0.25;stroke-miterlimit:10;}
	.st10{fill:#3279E0;stroke:#000000;stroke-width:0.25;stroke-miterlimit:10;}
	.st11{fill:#1696D6;stroke:#000000;stroke-width:0.25;stroke-miterlimit:10;}
	.st12{fill:#428099;stroke:#000000;stroke-width:0.25;stroke-miterlimit:10;}
	.st13{fill:none;stroke:#000000;stroke-width:0.25;stroke-miterlimit:10;}
	.st14{clip-path:url(#SVGID_10_);}
	.st15{opacity:0.38;fill:url(#SVGID_12_);stroke:#000000;stroke-width:0.25;stroke-miterlimit:10;}
</style>
<g id="Layer_2" class="st0">
	
		<rect x="80.09" y="-27.61" transform="matrix(-0.8478 0.5304 -0.5304 -0.8478 206.008 112.6264)" class="st1" width="13.49" height="226.98"/>
	<line class="st2" x1="26.36" y1="-10.15" x2="147.14" y2="182.02"/>
	
		<rect x="95.56" y="-24.41" transform="matrix(-0.8478 0.5304 -0.5304 -0.8478 233.1166 99.2841)" class="st1" width="13.49" height="215.01"/>
	<line class="st2" x1="45.02" y1="-7.87" x2="159.43" y2="174.17"/>
	
		<rect x="110.15" y="-24.61" transform="matrix(-0.8478 0.5304 -0.5304 -0.8478 257.8438 83.8133)" class="st1" width="13.49" height="207.05"/>
	<line class="st2" x1="61.65" y1="-8.64" x2="171.9" y2="166.61"/>
	
		<rect x="122.32" y="-32.88" transform="matrix(-0.8478 0.5304 -0.5304 -0.8478 276.0764 62.4916)" class="st1" width="13.49" height="207.5"/>
	<line class="st2" x1="73.54" y1="-16.77" x2="184.2" y2="158.76"/>
	
		<rect x="138.68" y="-27.82" transform="matrix(-0.8478 0.5304 -0.5304 -0.8478 305.321 50.3743)" class="st1" width="13.49" height="193.64"/>
	<line class="st2" x1="94.07" y1="-13.07" x2="196.89" y2="151.02"/>
	
		<rect x="153.12" y="-28.2" transform="matrix(-0.8478 0.5304 -0.5304 -0.8478 329.6576 34.5399)" class="st1" width="13.49" height="185.55"/>
	<line class="st2" x1="110.39" y1="-13.9" x2="209.18" y2="143.17"/>
	
		<rect x="168.87" y="-24.34" transform="matrix(-0.8478 0.5304 -0.5304 -0.8478 357.5286 21.8955)" class="st1" width="13.49" height="173.2"/>
	<line class="st2" x1="129.07" y1="-10.77" x2="221.66" y2="135.61"/>
	
		<rect x="183.97" y="-22.44" transform="matrix(-0.8478 0.5304 -0.5304 -0.8478 383.6314 7.649)" class="st1" width="13.49" height="162.63"/>
	<line class="st2" x1="147.61" y1="-10.07" x2="233.95" y2="127.75"/>
	
		<rect x="13.56" y="152.63" transform="matrix(-0.8478 0.5304 -0.5304 -0.8478 144.774 362.9227)" class="st1" width="13.49" height="99.22"/>
	<line class="st2" x1="-6.68" y1="160.6" x2="46.72" y2="244.23"/>
	
		<rect x="16.06" y="110.67" transform="matrix(-0.8478 0.5304 -0.5304 -0.8478 136.9396 318.1669)" class="st1" width="13.49" height="136.14"/>
	<line class="st2" x1="-13.35" y1="121.07" x2="59.01" y2="236.38"/>
	
		<rect x="23.14" y="84.33" transform="matrix(-0.8478 0.5304 -0.5304 -0.8478 141.4469 284.5186)" class="st1" width="13.49" height="156.46"/>
	<line class="st2" x1="-11.77" y1="96.34" x2="71.49" y2="228.82"/>
	
		<rect x="28.58" y="52.57" transform="matrix(-0.8478 0.5304 -0.5304 -0.8478 141.5062 246.8592)" class="st1" width="13.49" height="182.34"/>
	<line class="st2" x1="-13.33" y1="66.64" x2="83.78" y2="220.96"/>
	
		<rect x="37.04" y="30.1" transform="matrix(-0.8478 0.5304 -0.5304 -0.8478 149.4499 215.5925)" class="st1" width="13.49" height="198.28"/>
	<line class="st2" x1="-8.82" y1="45.21" x2="96.47" y2="213.23"/>
	
		<rect x="42.97" y="0.09" transform="matrix(-0.8478 0.5304 -0.5304 -0.8478 150.8596 179.147)" class="st1" width="13.49" height="222.27"/>
	<line class="st2" x1="-9.24" y1="17.02" x2="108.77" y2="205.37"/>
	
		<rect x="50.86" y="-23.43" transform="matrix(-0.8478 0.5304 -0.5304 -0.8478 157.5471 147.4588)" class="st1" width="13.49" height="239.54"/>
	<line class="st2" x1="-6.76" y1="-4.67" x2="121.24" y2="197.81"/>
	
		<rect x="62.7" y="-32.87" transform="matrix(-0.8478 0.5304 -0.5304 -0.8478 174.8745 125.3233)" class="st1" width="13.49" height="241.26"/>
	<line class="st2" x1="4.93" y1="-14.17" x2="133.53" y2="189.96"/>
	
		<rect x="200.77" y="-16.27" transform="matrix(-0.8478 0.5304 -0.5304 -0.8478 413.8497 -4.1502)" class="st1" width="13.49" height="147.18"/>
	<line class="st2" x1="167.45" y1="-4.42" x2="246.66" y2="119.64"/>
	
		<rect x="214.29" y="-19.86" transform="matrix(-0.8478 0.5304 -0.5304 -0.8478 435.7051 -22.2151)" class="st1" width="13.49" height="142.56"/>
	<line class="st2" x1="183.32" y1="-9.06" x2="258.95" y2="111.79"/>
	
		<rect x="224.91" y="-33.88" transform="matrix(-0.8478 0.5304 -0.5304 -0.8478 449.7447 -47.2939)" class="st1" width="13.49" height="149.56"/>
	<line class="st2" x1="192.4" y1="-22.75" x2="271.42" y2="104.23"/>
</g>
<g id="Layer_3">
	<g>
		<g>
			<defs>
				<polygon id="SVGID_1_" points="72.41,25.36 80.47,12.58 92.26,20.29 96.73,13.99 108.59,21.84 113.7,14.63 125.56,22.51 
					131.19,14.27 143.33,22.12 158.18,0.48 160.96,0.48 170.04,6.32 159.1,23.18 171.27,30.96 127,100.18 114.93,93.04 
					104.09,109.72 92.61,102.68 107.43,78.33 95.22,70.97 100.71,62.31 88.21,54.89 93,47.29 80.54,39.75 84.59,33.42 72.41,25.75 
									"/>
			</defs>
			<clipPath id="SVGID_2_">
				<use xlink:href="#SVGID_1_"  style="overflow:visible;"/>
			</clipPath>
			<g class="st3">
			</g>
		</g>
	</g>
	<radialGradient id="SVGID_3_" cx="121.8428" cy="55.1" r="52.0917" gradientUnits="userSpaceOnUse">
		<stop  offset="0" style="stop-color:#FFFFFF"/>
		<stop  offset="7.380247e-03" style="stop-color:#F6F6F6"/>
		<stop  offset="0.0477" style="stop-color:#C8C8C8"/>
		<stop  offset="0.0931" style="stop-color:#9D9D9D"/>
		<stop  offset="0.1419" style="stop-color:#777777"/>
		<stop  offset="0.195" style="stop-color:#575757"/>
		<stop  offset="0.2537" style="stop-color:#3B3B3B"/>
		<stop  offset="0.32" style="stop-color:#252525"/>
		<stop  offset="0.3974" style="stop-color:#141414"/>
		<stop  offset="0.4931" style="stop-color:#090909"/>
		<stop  offset="0.6274" style="stop-color:#020202"/>
		<stop  offset="1" style="stop-color:#000000"/>
	</radialGradient>
	<polygon class="st4" points="72.41,25.36 80.47,12.58 92.26,20.29 96.73,13.99 108.59,21.84 113.7,14.63 125.56,22.51 
		131.19,14.27 143.33,22.12 158.18,0.48 160.96,0.48 170.04,6.32 159.1,23.18 171.27,30.96 127,100.18 114.93,93.04 104.09,109.72 
		92.61,102.68 107.43,78.33 95.22,70.97 100.71,62.31 88.21,54.89 93,47.29 80.54,39.75 84.59,33.42 72.41,25.75 	"/>
</g>
<g id="Layer_4">
	<g>
		<g>
			<defs>
				<polygon id="SVGID_6_" points="1.14,0.38 2.5,1.23 0.2,5.08 0.2,6.16 11.93,13.57 9.31,18.5 20.57,25.58 31.03,9.02 
					43.09,16.76 29.58,39.75 40.84,46.89 70.41,0.48 				"/>
			</defs>
			<clipPath id="SVGID_4_">
				<use xlink:href="#SVGID_6_"  style="overflow:visible;"/>
			</clipPath>
			<g class="st5">
			</g>
		</g>
	</g>
	<radialGradient id="SVGID_5_" cx="35.3042" cy="23.6357" r="29.772" gradientUnits="userSpaceOnUse">
		<stop  offset="0" style="stop-color:#FFFFFF"/>
		<stop  offset="7.380247e-03" style="stop-color:#F6F6F6"/>
		<stop  offset="0.0477" style="stop-color:#C8C8C8"/>
		<stop  offset="0.0931" style="stop-color:#9D9D9D"/>
		<stop  offset="0.1419" style="stop-color:#777777"/>
		<stop  offset="0.195" style="stop-color:#575757"/>
		<stop  offset="0.2537" style="stop-color:#3B3B3B"/>
		<stop  offset="0.32" style="stop-color:#252525"/>
		<stop  offset="0.3974" style="stop-color:#141414"/>
		<stop  offset="0.4931" style="stop-color:#090909"/>
		<stop  offset="0.6274" style="stop-color:#020202"/>
		<stop  offset="1" style="stop-color:#000000"/>
	</radialGradient>
	<polygon class="st6" points="1.14,0.38 2.5,1.23 0.2,5.08 0.2,6.16 11.93,13.57 9.31,18.5 20.57,25.58 31.03,9.02 43.09,16.76 
		29.58,39.75 40.84,46.89 70.41,0.48 	"/>
</g>
<g id="Layer_5">
	<g>
		<g>
			<defs>
				<polygon id="SVGID_11_" points="176.34,51.92 187.15,58.96 180.85,69.37 192.53,76.98 178.88,99.36 166.63,91.9 160.01,102.18 
					148.75,95.14 				"/>
			</defs>
			<clipPath id="SVGID_7_">
				<use xlink:href="#SVGID_11_"  style="overflow:visible;"/>
			</clipPath>
			<g class="st7">
			</g>
		</g>
	</g>
	<radialGradient id="SVGID_8_" cx="170.64" cy="77.0466" r="23.5659" fx="191.0452" fy="88.8356" gradientUnits="userSpaceOnUse">
		<stop  offset="0" style="stop-color:#FFFFFF"/>
		<stop  offset="0" style="stop-color:#F6F6F6"/>
		<stop  offset="0" style="stop-color:#C8C8C8"/>
		<stop  offset="0" style="stop-color:#9D9D9D"/>
		<stop  offset="0" style="stop-color:#777777"/>
		<stop  offset="0" style="stop-color:#575757"/>
		<stop  offset="0" style="stop-color:#3B3B3B"/>
		<stop  offset="0" style="stop-color:#252525"/>
		<stop  offset="0" style="stop-color:#141414"/>
		<stop  offset="0" style="stop-color:#090909"/>
		<stop  offset="0" style="stop-color:#020202"/>
		<stop  offset="0" style="stop-color:#000000"/>
	</radialGradient>
	<polygon class="st8" points="176.34,51.92 187.15,58.96 180.85,69.37 192.53,76.98 178.88,99.36 166.63,91.9 160.01,102.18 
		148.75,95.14 	"/>
</g>
<g id="Layer_6">
</g>
<g id="Layer_1">
	
		<rect x="3.43" y="5.74" transform="matrix(0.8499 0.5269 -0.5269 0.8499 31.2227 3.0929)" class="st9" width="13.49" height="101.22"/>
	
		<rect x="3.28" y="36.7" transform="matrix(0.8499 0.5269 -0.5269 0.8499 45.797 7.3335)" class="st10" width="13.49" height="94.71"/>
	
		<rect x="23.33" y="3.38" transform="matrix(0.8499 0.5269 -0.5269 0.8499 46.2293 -3.9663)" class="st11" width="13.49" height="151.58"/>
	
		<rect x="27.5" y="17.52" transform="matrix(0.8499 0.5269 -0.5269 0.8499 57.7753 -3.0535)" class="st12" width="13.49" height="164.73"/>
	
		<rect x="37.59" y="31.95" transform="matrix(0.8499 0.5269 -0.5269 0.8499 65.1784 -6.6932)" class="st9" width="13.49" height="158.22"/>
	
		<rect x="48.92" y="48" transform="matrix(0.8499 0.5269 -0.5269 0.8499 71.7157 -11.2843)" class="st10" width="13.49" height="144.49"/>
	
		<rect x="59.12" y="65.02" transform="matrix(0.8499 0.5269 -0.5269 0.8499 79.0442 -15.006)" class="st9" width="13.49" height="132.45"/>
	
		<rect x="66.79" y="99.52" transform="matrix(0.8499 0.5269 -0.5269 0.8499 88.1368 -16.7891)" class="st11" width="13.49" height="93.59"/>
	
		<rect x="88.8" y="89.9" transform="matrix(0.8499 0.5269 -0.5269 0.8499 87.1972 -29.5966)" class="st12" width="13.49" height="96.72"/>
	
		<rect x="115.19" y="58.38" transform="matrix(0.8499 0.5269 -0.5269 0.8499 83.1989 -45.7652)" class="st11" width="13.49" height="129.56"/>
	
		<rect x="119.83" y="92.16" transform="matrix(0.8499 0.5269 -0.5269 0.8499 94.4121 -45.218)" class="st9" width="13.49" height="101.93"/>
	
		<rect x="138.67" y="89.58" transform="matrix(0.8499 0.5269 -0.5269 0.8499 95.6976 -55.5802)" class="st10" width="13.49" height="101.22"/>
	
		<rect x="155.25" y="82.15" transform="matrix(0.8499 0.5269 -0.5269 0.8499 98.5582 -64.2116)" class="st9" width="13.49" height="117.49"/>
	
		<rect x="154.16" y="136.74" transform="matrix(0.8499 0.5269 -0.5269 0.8499 113.7821 -59.2572)" class="st12" width="13.49" height="66.72"/>
	
		<rect x="172.53" y="123.02" transform="matrix(0.8499 0.5269 -0.5269 0.8499 115.3895 -69.2657)" class="st11" width="13.49" height="89.79"/>
	
		<rect x="-13.51" y="16.39" transform="matrix(0.8499 0.5269 -0.5269 0.8499 29.1686 12.1599)" class="st12" width="13.49" height="81.79"/>
	
		<rect x="-24.38" y="3.48" transform="matrix(0.8499 0.5269 -0.5269 0.8499 22.2303 16.3748)" class="st10" width="13.49" height="87.45"/>
	
		<rect x="-35.25" y="-9.08" transform="matrix(0.8499 0.5269 -0.5269 0.8499 15.4155 20.6266)" class="st9" width="13.49" height="92.91"/>
	
		<rect x="178.91" y="134.04" transform="matrix(0.8499 0.5269 -0.5269 0.8499 124.6349 -70.2621)" class="st9" width="13.49" height="99.22"/>
	<line class="st13" x1="36.84" y1="13.33" x2="-16.05" y2="99.64"/>
	<line class="st13" x1="14.5" y1="22.35" x2="-27.94" y2="92.27"/>
	<line class="st13" x1="5.07" y1="9.83" x2="-41.18" y2="84.06"/>
	<line class="st13" x1="-4.18" y1="-2.21" x2="-52.86" y2="76.93"/>
	<line class="st13" x1="35.24" y1="43.97" x2="-14.84" y2="124.36"/>
	<line class="st13" x1="70.52" y1="15.07" x2="-9.88" y2="143.57"/>
	<line class="st13" x1="77.93" y1="30.06" x2="-8.82" y2="170.1"/>
	<line class="st13" x1="86.45" y1="44.09" x2="2.24" y2="178.05"/>
	<line class="st13" x1="93.65" y1="58.79" x2="17.66" y2="181.69"/>
	<line class="st13" x1="100.49" y1="74.8" x2="30.63" y2="187.32"/>
	<line class="st13" x1="98.38" y1="106.66" x2="48.99" y2="186.15"/>
	<line class="st13" x1="121.13" y1="97.22" x2="70.26" y2="179.48"/>
	<line class="st13" x1="155.89" y1="67.99" x2="87.74" y2="178.18"/>
	<line class="st13" x1="153.41" y1="99.79" x2="106.52" y2="175.63"/>
	<line class="st13" x1="172.75" y1="97.59" x2="119.46" y2="183.65"/>
	<line class="st13" x1="193.24" y1="91.15" x2="131.17" y2="190.91"/>
	<line class="st13" x1="178.69" y1="141.88" x2="143.23" y2="198.39"/>
	<line class="st13" x1="202.89" y1="129.73" x2="155.63" y2="206.08"/>
	<line class="st13" x1="212.46" y1="141.9" x2="159.41" y2="225.75"/>
	
		<rect x="75.42" y="-107.36" transform="matrix(0.8359 0.5489 -0.5489 0.8359 -17.6659 -54.4172)" class="st9" width="13.49" height="101.22"/>
	
		<rect x="100.48" y="-115.92" transform="matrix(0.8359 0.5489 -0.5489 0.8359 -20.0361 -70.111)" class="st10" width="13.49" height="94.71"/>
	
		<rect x="104.49" y="-124.11" transform="matrix(0.8359 0.5489 -0.5489 0.8359 -8.2651 -68.9893)" class="st11" width="13.49" height="151.58"/>
	
		<rect x="120.12" y="-119.16" transform="matrix(0.8359 0.5489 -0.5489 0.8359 -4.2994 -77.149)" class="st12" width="13.49" height="146.79"/>
	
		<rect x="134.43" y="-111.22" transform="matrix(0.8359 0.5489 -0.5489 0.8359 0.5505 -84.2574)" class="st9" width="13.49" height="140.02"/>
	
		<rect x="149.94" y="-106" transform="matrix(0.8359 0.5489 -0.5489 0.8359 4.5978 -92.3201)" class="st10" width="13.49" height="135.06"/>
	
		<rect x="157.89" y="-74.19" transform="matrix(0.8359 0.5489 -0.5489 0.8359 13.7262 -94.3408)" class="st9" width="13.49" height="99.95"/>
	
		<rect x="172.93" y="-47.94" transform="matrix(0.8359 0.5489 -0.5489 0.8359 18.0849 -102.0333)" class="st11" width="13.49" height="54.33"/>
	
		<rect x="179.53" y="-41.64" transform="matrix(0.8359 0.5489 -0.5489 0.8359 28.1163 -102.9802)" class="st12" width="13.49" height="74.34"/>
	
		<rect x="179.77" y="-37.24" transform="matrix(0.8359 0.5489 -0.5489 0.8359 42.4156 -98.8522)" class="st11" width="13.49" height="117.49"/>
	
		<rect x="199.64" y="-26.98" transform="matrix(0.8359 0.5489 -0.5489 0.8359 43.5347 -110.3969)" class="st9" width="13.49" height="89.16"/>
	
		<rect x="208.42" y="-20.03" transform="matrix(0.8359 0.5489 -0.5489 0.8359 52.0996 -113.0876)" class="st10" width="13.49" height="101.22"/>
	
		<rect x="216.05" y="-13.42" transform="matrix(0.8359 0.5489 -0.5489 0.8359 61.4426 -114.8532)" class="st9" width="13.49" height="117.49"/>
	
		<rect x="245.2" y="-11.77" transform="matrix(0.8359 0.5489 -0.5489 0.8359 56.3225 -133.8169)" class="st12" width="13.49" height="78.11"/>
	
		<rect x="254.52" y="-17.63" transform="matrix(0.8359 0.5489 -0.5489 0.8359 64.5285 -136.9345)" class="st11" width="13.49" height="114.14"/>
	
		<rect x="69.13" y="-113.4" transform="matrix(0.8359 0.5489 -0.5489 0.8359 -27.3482 -53.5479)" class="st12" width="13.49" height="81.79"/>
	
		<rect x="55.42" y="-121.85" transform="matrix(0.8359 0.5489 -0.5489 0.8359 -32.6804 -46.9427)" class="st10" width="13.49" height="87.45"/>
	
		<rect x="41.92" y="-130.3" transform="matrix(0.8359 0.5489 -0.5489 0.8359 -38.0337 -40.4705)" class="st9" width="13.49" height="92.91"/>
	
		<rect x="269.2" y="-15.61" transform="matrix(0.8359 0.5489 -0.5489 0.8359 68.3673 -144.5685)" class="st9" width="13.49" height="115.32"/>
	<line class="st13" x1="54.38" y1="-14.46" x2="110.38" y2="-98.77"/>
	<line class="st13" x1="53.14" y1="-38.51" x2="98.69" y2="-106.45"/>
	<line class="st13" x1="37.83" y1="-41.79" x2="85.66" y2="-115"/>
	<line class="st13" x1="23.01" y1="-45.11" x2="74.28" y2="-122.6"/>
	<line class="st13" x1="81.49" y1="-28.81" x2="133.31" y2="-108.09"/>
	<line class="st13" x1="70.14" y1="15.37" x2="152.82" y2="-111.68"/>
	<line class="st13" x1="86.86" y1="15.77" x2="166.86" y2="-107.31"/>
	<line class="st13" x1="103.17" y1="17.59" x2="179.92" y2="-99.52"/>
	<line class="st13" x1="119.54" y1="17.92" x2="193.81" y2="-94.88"/>
	<line class="st13" x1="136.94" y1="17.38" x2="191.75" y2="-66.2"/>
	<line class="st13" x1="164.95" y1="2.05" x2="194.72" y2="-43.39"/>
	<line class="st13" x1="165.97" y1="26.66" x2="206.84" y2="-35.43"/>
	<line class="st13" x1="154.1" y1="70.5" x2="218.7" y2="-27.65"/>
	<line class="st13" x1="181.89" y1="54.85" x2="230.93" y2="-19.62"/>
	<line class="st13" x1="188.05" y1="73.32" x2="243.65" y2="-11.26"/>
	<line class="st13" x1="190.84" y1="94.62" x2="255.17" y2="-3.69"/>
	<line class="st13" x1="230.71" y1="60.06" x2="273.24" y2="-5.46"/>
	<line class="st13" x1="229.89" y1="87.12" x2="291.76" y2="-6.96"/>
	<line class="st13" x1="244.96" y1="90.68" x2="307.37" y2="-6.3"/>
	
		<rect x="303.54" y="43.31" transform="matrix(0.8359 0.5489 -0.5489 0.8359 102.473 -154.9023)" class="st9" width="13.49" height="101.22"/>
	
		<rect x="328.6" y="34.75" transform="matrix(0.8359 0.5489 -0.5489 0.8359 100.1028 -170.5961)" class="st10" width="13.49" height="94.71"/>
	
		<rect x="332.61" y="26.56" transform="matrix(0.8359 0.5489 -0.5489 0.8359 111.8739 -169.4744)" class="st11" width="13.49" height="151.58"/>
	
		<rect x="348.24" y="31.51" transform="matrix(0.8359 0.5489 -0.5489 0.8359 115.8396 -177.6341)" class="st12" width="13.49" height="146.79"/>
	
		<rect x="362.55" y="39.45" transform="matrix(0.8359 0.5489 -0.5489 0.8359 120.6894 -184.7425)" class="st9" width="13.49" height="140.02"/>
	
		<rect x="378.06" y="44.67" transform="matrix(0.8359 0.5489 -0.5489 0.8359 124.7368 -192.8051)" class="st10" width="13.49" height="135.06"/>
	
		<rect x="386" y="76.48" transform="matrix(0.8359 0.5489 -0.5489 0.8359 133.8652 -194.8259)" class="st9" width="13.49" height="99.95"/>
	
		<rect x="297.24" y="37.27" transform="matrix(0.8359 0.5489 -0.5489 0.8359 92.7907 -154.033)" class="st12" width="13.49" height="81.79"/>
	
		<rect x="283.53" y="28.82" transform="matrix(0.8359 0.5489 -0.5489 0.8359 87.4585 -147.4278)" class="st10" width="13.49" height="87.45"/>
	
		<rect x="277.13" y="-3.36" transform="matrix(0.8359 0.5489 -0.5489 0.8359 77.3374 -146.625)" class="st9" width="13.49" height="118.77"/>
	<line class="st13" x1="282.49" y1="136.21" x2="338.5" y2="51.9"/>
	<line class="st13" x1="281.26" y1="112.16" x2="326.8" y2="44.22"/>
	<line class="st13" x1="265.94" y1="108.88" x2="313.78" y2="35.67"/>
	<line class="st13" x1="251.12" y1="105.56" x2="316.36" y2="6.96"/>
	<line class="st13" x1="309.61" y1="121.86" x2="361.42" y2="42.58"/>
	<line class="st13" x1="298.26" y1="166.04" x2="380.93" y2="38.99"/>
	<line class="st13" x1="314.97" y1="166.44" x2="394.98" y2="43.36"/>
	<line class="st13" x1="331.29" y1="168.26" x2="408.04" y2="51.15"/>
	<line class="st13" x1="347.65" y1="168.59" x2="421.93" y2="55.79"/>
	<line class="st13" x1="365.05" y1="168.05" x2="419.86" y2="84.47"/>
	
		<rect x="225.86" y="164.34" transform="matrix(0.8454 0.5341 -0.5341 0.8454 150.7448 -91.0031)" class="st9" width="13.49" height="101.22"/>
	
		<rect x="225.47" y="195.3" transform="matrix(0.8454 0.5341 -0.5341 0.8454 165.4786 -86.5139)" class="st10" width="13.49" height="94.71"/>
	
		<rect x="245.56" y="162.14" transform="matrix(0.8454 0.5341 -0.5341 0.8454 166.0619 -97.9738)" class="st11" width="13.49" height="151.58"/>
	
		<rect x="254.35" y="177.71" transform="matrix(0.8454 0.5341 -0.5341 0.8454 174.4556 -100.6305)" class="st12" width="13.49" height="146.79"/>
	
		<rect x="264.41" y="192.24" transform="matrix(0.8454 0.5341 -0.5341 0.8454 181.9647 -104.2844)" class="st9" width="13.49" height="140.02"/>
	
		<rect x="273.32" y="207.71" transform="matrix(0.8454 0.5341 -0.5341 0.8454 190.2767 -107.0332)" class="st10" width="13.49" height="135.06"/>
	
		<rect x="289.58" y="226.6" transform="matrix(0.8454 0.5341 -0.5341 0.8454 193.5044 -115.5126)" class="st9" width="13.49" height="99.95"/>
	
		<rect x="208.91" y="174.84" transform="matrix(0.8454 0.5341 -0.5341 0.8454 148.5445 -81.8295)" class="st12" width="13.49" height="81.79"/>
	
		<rect x="198.12" y="161.85" transform="matrix(0.8454 0.5341 -0.5341 0.8454 141.4506 -77.6415)" class="st10" width="13.49" height="87.45"/>
	
		<rect x="187.34" y="149.19" transform="matrix(0.8454 0.5341 -0.5341 0.8454 134.4814 -73.4145)" class="st9" width="13.49" height="92.91"/>
	<line class="st13" x1="259.62" y1="172.15" x2="206.01" y2="258.01"/>
	<line class="st13" x1="237.21" y1="180.98" x2="194.18" y2="250.54"/>
	<line class="st13" x1="227.89" y1="168.39" x2="181.01" y2="242.22"/>
	<line class="st13" x1="218.74" y1="156.27" x2="169.39" y2="234.99"/>
	<line class="st13" x1="257.76" y1="202.78" x2="207.01" y2="282.74"/>
	<line class="st13" x1="293.29" y1="174.17" x2="211.81" y2="301.99"/>
	<line class="st13" x1="300.57" y1="189.23" x2="221.6" y2="312.97"/>
	<line class="st13" x1="308.97" y1="203.33" x2="234.09" y2="321.64"/>
	<line class="st13" x1="316.05" y1="218.09" x2="244.06" y2="332.37"/>
	<line class="st13" x1="322.75" y1="234.15" x2="269.32" y2="318.62"/>
	<g>
		<g>
			<defs>
				<polygon id="SVGID_9_" points="224.49,56.86 235.54,64.32 223.5,83.75 235.54,91.84 238.64,87.34 249.48,94.59 244.62,102.33 
					257.08,110.36 260.25,105.99 271.93,113.45 275.24,109.09 286.36,116.48 276.01,132.6 288.4,140.62 303.33,118.59 
					306.92,121.06 306.92,138.3 291.22,162.44 303.54,170.26 306.92,165.12 306.92,172.09 291.43,172.09 286.5,169.27 
					284.53,172.44 261.58,172.44 253.56,167.65 250.53,172.44 234.84,172.44 233.92,171.6 222.87,164.35 226.25,159.42 
					213.93,152.03 218.51,144.71 206.68,137.46 209.71,132.95 196.9,125.49 184.58,144.42 173.32,137.46 				"/>
			</defs>
			<clipPath id="SVGID_10_">
				<use xlink:href="#SVGID_9_"  style="overflow:visible;"/>
			</clipPath>
			<g class="st14">
			</g>
		</g>
		<polygon class="st13" points="224.49,56.86 235.54,64.32 223.5,83.75 235.54,91.84 238.64,87.34 249.48,94.59 244.62,102.33 
			257.08,110.36 260.25,105.99 271.93,113.45 275.24,109.09 286.36,116.48 276.01,132.6 288.4,140.62 303.33,118.59 306.92,121.06 
			306.92,138.3 291.22,162.44 303.54,170.26 306.92,165.12 306.92,172.09 291.43,172.09 286.5,169.27 284.53,172.44 261.58,172.44 
			253.56,167.65 250.53,172.44 234.84,172.44 233.92,171.6 222.87,164.35 226.25,159.42 213.93,152.03 218.51,144.71 206.68,137.46 
			209.71,132.95 196.9,125.49 184.58,144.42 173.32,137.46 		"/>
	</g>
	<radialGradient id="SVGID_12_" cx="240.1154" cy="114.6498" r="62.4578" gradientUnits="userSpaceOnUse">
		<stop  offset="0" style="stop-color:#FFFFFF"/>
		<stop  offset="7.380247e-03" style="stop-color:#F6F6F6"/>
		<stop  offset="0.0477" style="stop-color:#C8C8C8"/>
		<stop  offset="0.0931" style="stop-color:#9D9D9D"/>
		<stop  offset="0.1419" style="stop-color:#777777"/>
		<stop  offset="0.195" style="stop-color:#575757"/>
		<stop  offset="0.2537" style="stop-color:#3B3B3B"/>
		<stop  offset="0.32" style="stop-color:#252525"/>
		<stop  offset="0.3974" style="stop-color:#141414"/>
		<stop  offset="0.4931" style="stop-color:#090909"/>
		<stop  offset="0.6274" style="stop-color:#020202"/>
		<stop  offset="1" style="stop-color:#000000"/>
	</radialGradient>
	<polygon class="st15" points="224.49,56.86 235.54,64.32 223.5,83.75 235.54,91.84 238.64,87.34 249.48,94.59 244.62,102.33 
		257.08,110.36 260.25,105.99 271.93,113.45 275.24,109.09 286.36,116.48 276.01,132.6 288.4,140.62 303.33,118.59 306.92,121.06 
		306.92,138.3 291.22,162.44 303.54,170.26 306.92,165.12 306.92,172.09 291.43,172.09 286.5,169.27 284.53,172.44 261.58,172.44 
		253.56,167.65 250.53,172.44 234.84,172.44 233.92,171.6 222.87,164.35 226.25,159.42 213.93,152.03 218.51,144.71 206.68,137.46 
		209.71,132.95 196.9,125.49 184.58,144.42 173.32,137.46 	"/>
</g>
</svg>
