<?xml version="1.0" encoding="utf-8"?>
<!-- Generator: Adobe Illustrator 25.2.1, SVG Export Plug-In . SVG Version: 6.00 Build 0)  -->
<svg version="1.0" xmlns="http://www.w3.org/2000/svg" xmlns:xlink="http://www.w3.org/1999/xlink" x="0px" y="0px"
	 viewBox="0 0 512 512" style="enable-background:new 0 0 512 512;" xml:space="preserve">
<style type="text/css">
	.st0{fill:#0BBB90;stroke:#FFE956;stroke-width:3;stroke-miterlimit:10;}
</style>
<g id="Layer_3">
	<path class="st0" d="M372.14,177.86c0,0,15.77,4.5,16.33,15.2s0,156.55,0,156.55s-4.76,16.33-13.08,16.89
		c-8.32,0.56-215.55,0-215.55,0s-20.84-5.07-20.27-17.46c0.56-12.39-0.01-157.67-0.01-157.67s5.71-14.08,14.12-13.51"/>
</g>
<g id="Layer_1">
	<g transform="translate(1 1)">
		<g>
			<path class="st0" d="M375.88,173.35c-2.05-0.63-4.23-0.96-6.53-0.96H157.72c-2.3,0-4.48,0.32-6.53,0.96
				c-9.12,2.75-15.66,11.14-15.66,21.23v151.89c0,6.14,2.42,11.65,6.36,15.64c0.14,0.21,0.29,0.4,0.46,0.57
				c1.11,1,2.3,1.88,3.56,2.64c3.13,1.94,6.79,3.13,10.74,3.31c0.35,0.02,0.71,0.03,1.06,0.03h211.63c0.35,0,0.71-0.01,1.06-0.03
				c11.87-0.54,21.13-10.14,21.13-22.16V194.58C391.53,184.48,385,176.1,375.88,173.35z M288.76,274.31l92.57-86.39
				c1.07,1.96,1.67,4.22,1.67,6.66v151.89c0,2.71-0.75,5.21-2.05,7.31L288.76,274.31z M369.35,180.93c0.25,0,0.49,0.01,0.73,0.02
				c0.12,0.01,0.24,0.02,0.36,0.03c0.13,0.01,0.26,0.02,0.38,0.03c0.06,0.01,0.12,0.02,0.18,0.02c1.4,0.17,2.65,0.56,3.89,1.18
				l-93.98,87.87c-0.55,0.2-1.1,0.5-1.6,0.87l-3.41,2.99c-7.25,6.83-18.35,6.83-25.6,0l-0.46-0.4l-97.67-91.33
				c1.24-0.62,2.48-1.01,3.89-1.18c0.06-0.01,0.12-0.02,0.18-0.02c0.13-0.01,0.26-0.02,0.38-0.03c0.12-0.01,0.24-0.02,0.36-0.03
				c0.24-0.01,0.48-0.02,0.73-0.02L369.35,180.93L369.35,180.93z M145.83,353.3c-1.12-1.99-1.76-4.32-1.76-6.82V194.58
				c0-2.44,0.6-4.7,1.67-6.66l92.15,86.01L145.83,353.3z M157.72,360.13c-1.38,0-2.77-0.28-4.15-0.62c-0.3-0.09-0.6-0.2-0.89-0.31
				l91.84-79.08l0.24,0.22c1.76,1.49,3.6,2.76,5.52,3.8c10.08,5.78,23.35,4.51,32.03-3.8l0.44-0.41l91.64,79.28
				c-0.29,0.11-0.58,0.22-0.89,0.31c-1.38,0.33-2.77,0.61-4.15,0.61L157.72,360.13L157.72,360.13z"/>
		</g>
	</g>
</g>
</svg>
