<?xml version="1.0" encoding="utf-8"?>
<!-- Generator: Adobe Illustrator 25.2.1, SVG Export Plug-In . SVG Version: 6.00 Build 0)  -->
<svg version="1.0" xmlns="http://www.w3.org/2000/svg" xmlns:xlink="http://www.w3.org/1999/xlink" x="0px" y="0px"
	 viewBox="0 0 512 512" style="enable-background:new 0 0 512 512;" xml:space="preserve">
<style type="text/css">
	.st0{fill:#0BBB90;stroke:#FFE956;stroke-width:3;stroke-miterlimit:10;}
</style>
<g id="Layer_2">
	<path class="st0" d="M133.37,207.11h39.42c0,0,8.68,0.88,8.7,9.61c0.03,8.73,0.03,164.99,0.03,164.99s-1.69,7.6-6.48,7.88
		c-4.79,0.28-42.8-1.13-42.8-1.13s-5.91-2.53-6.48-10.14s0-161.33,0-161.33S126.62,207.11,133.37,207.11z"/>
	<path class="st0" d="M125.62,136.47c0,0-9.98,17.74-2.94,29.56c7.04,11.83,20.02,26.75,30.85,23.09
		c10.82-3.66,28.84-11.83,29.69-18.3c0.84-6.48,3.38-26.47,0-31.25c-3.38-4.79-12.67-13.23-19.99-15.49
		c-7.32-2.25-22.24,0.97-26.47,3.86C132.53,130.84,125.62,136.47,125.62,136.47z"/>
	<path class="st0" d="M263.74,207.11h-44.99c0,0-4.28-1.42-4.85,4.66c-0.56,6.08,0,173.61,0,173.61s1.25,3.17,4.85,4.26
		c3.6,1.09,52.59,0,52.59,0s2.53-0.32,2.53-6.79s0-104.18,0-104.18s2.25-7.6,7.32-13.51c5.07-5.91,12.95-12.67,19.15-12.67
		s19.43,1.97,23.37,5.35c3.94,3.38,11.26,10.7,11.26,17.18c0,6.48,0,109.05,0,109.05s0.28,5.61,5.63,5.58s45.78,0,45.78,0
		s4.34-0.88,4.34-7.64c0-6.76,0-125.99,0-125.99s-4.22-20.98-10.7-27.46c-6.48-6.48-12.39-17.74-19.43-19.71
		c-7.04-1.97-21.12-6.29-29.28-6.38c-8.17-0.09-28.44,1.52-33.22,4.66c-4.79,3.13-18.3,11.86-19.71,13.83
		c-1.41,1.97-8.73,9.29-8.73,9.29l0.28-18.47C269.93,211.76,268.24,207.11,263.74,207.11z"/>
</g>
<g id="Layer_1">
	<g transform="translate(1)">
		<g>
			<g>
				<path class="st0" d="M153.02,118.63c-10.24,0-19.56,3.73-26.54,10.71c-7.45,7.45-11.18,16.76-11.18,26.54
					c0,10.24,4.19,19.56,11.18,26.54s16.76,11.18,26.08,10.71c0,0,0.47,0,0.93,0c9.31,0,18.16-3.73,25.15-10.71
					s11.18-16.3,11.18-26.54c0.47-9.78-3.73-19.09-10.71-26.08C172.11,122.36,162.8,118.63,153.02,118.63z M172.11,175.91
					c-5.12,5.12-12.11,8.38-19.56,7.92c-6.98,0-14.43-2.79-19.56-7.92c-5.59-5.12-8.38-12.57-8.38-20.02
					c0-7.45,2.79-14.43,8.38-20.02c5.12-5.12,12.11-7.92,20.02-7.92c6.98,0,13.97,2.79,19.09,7.92c5.59,5.59,8.38,12.57,8.38,20.02
					C180.5,163.34,177.7,170.79,172.11,175.91z"/>
				<path class="st0" d="M171.18,202.45h-37.72c-7.45,0-13.5,6.05-13.5,13.97V379.4c0,7.45,6.52,13.97,13.97,13.97h37.25
					c7.45,0,13.97-6.52,13.97-13.5V216.42C185.15,208.97,178.63,202.45,171.18,202.45z M175.84,379.86c0,2.33-2.33,4.19-4.66,4.19
					h-37.25c-2.33,0-4.66-2.33-4.66-4.66V216.42c0-2.33,1.86-4.66,4.19-4.66h37.72c2.33,0,4.66,2.33,4.66,4.66V379.86z"/>
				<path class="st0" d="M329.5,197.79h-9.78c-18.16,0-35.39,7.92-46.56,20.49v-6.52c0-4.66-4.66-9.31-9.31-9.31h-46.56
					c-4.19,0-9.31,3.73-9.31,8.85v173.69c0,5.12,5.12,8.38,9.31,8.38h51.22c4.19,0,9.31-3.26,9.31-8.38V284.4
					c0-15.37,11.18-27.47,25.61-27.47c7.45,0,14.43,2.79,19.56,7.92c4.66,4.19,6.52,10.71,6.52,19.09v100.12
					c0,4.66,4.66,9.31,9.31,9.31h46.56c4.66,0,9.31-4.66,9.31-9.31V263.92C394.69,226.66,366.29,197.79,329.5,197.79z
					 M385.38,383.59l-0.47,0.47h-45.63l-0.47-100.11c0-11.18-2.79-19.56-8.85-25.61c-6.98-6.98-16.3-10.71-26.08-10.71
					c-19.56,0.47-34.92,16.3-34.92,36.79v99.65h-51.22V211.76h46.1l0.47,0.47v29.34l12.57-12.57l0.47-0.47
					c9.31-13.04,25.61-21.42,42.84-21.42h9.78c31.2,0,55.41,25.15,55.41,56.81V383.59z"/>
			</g>
		</g>
	</g>
</g>
</svg>
