<?xml version="1.0" encoding="utf-8"?>
<!-- Generator: Adobe Illustrator 25.2.1, SVG Export Plug-In . SVG Version: 6.00 Build 0)  -->
<svg version="1.0" xmlns="http://www.w3.org/2000/svg" xmlns:xlink="http://www.w3.org/1999/xlink" x="0px" y="0px"
	 viewBox="0 0 512.03 512.03" style="enable-background:new 0 0 512.03 512.03;" xml:space="preserve">
<style type="text/css">
	.st0{fill:#0BBB90;stroke:#FFE956;stroke-width:4;stroke-miterlimit:10;}
</style>
<g id="Layer_3">
</g>
<g id="Layer_2">
	<path class="st0" d="M126.24,193.06l-3.28-13.33c0,0,0.19-13.14,5.73-17.74c5.54-4.6,27.22-23.18,36.7-25.72
		c9.48-2.53,43.92-11.45,61.38-12.48c17.46-1.03,60.54-0.56,68.7,0.94c8.17,1.5,47.02,7.51,51.24,10.32s30.69,18.49,35.48,26.19
		c4.79,7.7,8.63,19.33,6.95,24.78c-1.69,5.44-5.63,16.99-6.85,18.86c-1.22,1.88-4.88,6.29-12.67,4.79
		c-7.79-1.5-46.27-8.73-48.05-9.67c-1.78-0.94-7.7-5.73-6.38-10.7c1.31-4.97,5.16-21.96,2.91-24.4c-2.25-2.44-7.41-4.88-10.61-4.88
		s-74.33-5.91-87.47-3.1c-13.14,2.82-18.68,4.13-20.93,5.82s-5.54,3.1-4.79,8.82c0.75,5.73,2.25,19.62,2.25,19.62
		s-1.6,7.7-5.63,8.63s-51.53,10.16-51.53,10.16s-9.01-0.49-10.32-5.19C127.74,200.1,126.24,193.06,126.24,193.06z"/>
	<path class="st0" d="M259.94,241.92h-22.1v-41.11h-23.37l-4.08,41.11l-21.82,0.7l-65.88,86.58v46.04c0,0,9.57,13.37,16.05,14.64
		c6.48,1.27,235.67-0.84,235.67-0.84s13.51-6.05,14.36-15.2c0.84-9.15,0-42.52,0-42.52l-63.49-86.3l-23.65-2.96l-4.65-39.28
		l-20.84-0.7l-1.69,39.28L259.94,241.92z"/>
</g>
<g id="Capa_1">
	<g transform="translate(-1)">
		<g>
			<g>
				<path class="st0" d="M125.21,204.46c1.64,6.05,7.16,10.24,13.44,10.18c0.9,0,1.81-0.09,2.69-0.26l27.86-5.34l21.44-4.7
					c7.06-1.27,11.91-7.8,11.08-14.93l-2.62-20.06c-0.33-2.5,5.4-5.26,10.74-6.07c30.95-5.01,62.49-5.09,93.46-0.24
					c8.51,1.47,10.39,2.83,10.8,3.34c0.86,2.11,0.98,4.45,0.35,6.64l-1.88,13.33c-1.06,4.31-0.31,8.87,2.07,12.61
					c3.33,3.52,7.83,5.71,12.66,6.15c3.22,0.62,5.7,1.24,8.18,1.84c2.63,0.65,5.26,1.31,8.68,1.96l24.93,4.81
					c4.33,1.28,8.98,1.01,13.14-0.76c4.38-2.82,7.21-7.5,7.68-12.68l0.15-0.67c0.48-2.12,1.12-4.23,1.76-6.34
					c1.82-5.05,2.8-10.37,2.91-15.73c-0.74-9.46-5.1-18.27-12.18-24.59c-31.84-31.25-86.9-34.86-125.53-34.86
					c-88.17,0-121.77,25.38-134.43,46.67c-3.48,5.89-4.43,12.93-2.65,19.54L125.21,204.46z M130.49,169.46
					c11.44-19.25,42.68-42.19,126.53-42.19c37.03,0,89.66,3.34,119.09,32.23c5.35,4.67,8.71,11.22,9.4,18.29
					c-0.16,4.38-1.01,8.71-2.52,12.82c-0.69,2.3-1.38,4.62-1.92,6.95l-0.16,0.7c-0.77,3.42-1.38,5.72-2.96,6.55
					c-2.34,0.64-4.82,0.59-7.14-0.13l-24.91-4.75c-3.22-0.62-5.71-1.24-8.18-1.84c-2.63-0.65-5.26-1.31-8.67-1.96
					c-2.2-0.42-5.89-1.13-7.07-2.68c-0.74-1.84-0.84-3.87-0.29-5.78l1.88-13.33c1.1-4.48,0.4-9.22-1.93-13.2
					c-2.97-4.23-9.82-5.92-16.76-7.12c-31.94-5.01-64.48-4.94-96.4,0.21c-10.06,1.53-19.67,7.17-18.48,16.36l2.62,20.06
					c0.19,2.34-1.48,4.42-3.81,4.74l-21.44,4.66l-27.75,5.32c-2.4,0.54-4.81-0.86-5.52-3.22l-5.25-20.14
					C127.69,177.76,128.28,173.24,130.49,169.46z"/>
				<path class="st0" d="M394.14,327.98c-0.05-0.12-0.09-0.23-0.14-0.34c-0.43-1.14-1.01-2.22-1.72-3.22l-58.45-79.32
					c-3.48-4.7-8.97-7.47-14.81-7.48h-11.95l-4.06-32.52c-0.18-4.95-4.25-8.86-9.2-8.86h-13.79c-5.08,0-9.2,4.12-9.2,9.2v36.78
					c0,2.54,2.06,4.6,4.6,4.6c2.54,0,4.6-2.06,4.6-4.6v-36.78h13.79c0,0.19,0.01,0.38,0.04,0.57l4.6,36.78
					c0.29,2.3,2.24,4.03,4.56,4.03h16.02c2.92,0,5.67,1.39,7.4,3.74l54.84,74.43h-36.88c-2.54,0-4.6,2.06-4.6,4.6
					c0,2.54,2.06,4.6,4.6,4.6h41.38v36.78c0,7.62-6.18,13.79-13.79,13.79h-229.9c-7.62,0-13.79-6.18-13.79-13.79v-36.78H321.4
					c2.54,0,4.6-2.06,4.6-4.6c0-2.54-2.06-4.6-4.6-4.6H132.78l54.84-74.43c1.74-2.35,4.48-3.73,7.4-3.74h16.02
					c2.32,0,4.27-1.73,4.56-4.03l4.6-36.78c0.03-0.19,0.04-0.38,0.04-0.57h13.79v36.78c0,2.54,2.06,4.6,4.6,4.6h18.39
					c2.54,0,4.6-2.06,4.6-4.6c0-2.54-2.06-4.6-4.6-4.6h-13.79v-32.19c0-5.08-4.12-9.2-9.2-9.2h-13.79c-4.95,0-9.02,3.91-9.2,8.86
					l-4.06,32.52h-11.95c-5.84,0.02-11.32,2.79-14.79,7.48l-58.47,79.32c-0.71,0.99-1.29,2.07-1.72,3.22
					c-0.05,0.1-0.1,0.22-0.14,0.33c-0.54,1.49-0.82,3.05-0.83,4.63v38.36c0.02,12.69,10.3,22.97,22.99,22.99h229.9
					c12.69-0.02,22.97-10.3,22.99-22.99v-38.36C394.96,331.03,394.68,329.46,394.14,327.98z"/>
				<path class="st0" d="M226.73,272.05c4.23-2.26,8.76-3.93,13.44-4.97c11.1-2.48,22.61-2.48,33.71,0c1.6,0.38,3.29-0.13,4.42-1.33
					c1.13-1.2,1.53-2.91,1.04-4.49c-0.48-1.58-1.77-2.77-3.38-3.14c-12.47-2.79-25.41-2.79-37.88,0c-5.51,1.23-10.82,3.2-15.79,5.87
					c-4.36,2.28-8.2,5.44-11.28,9.27c-6.1,7.33-6.1,17.96,0,25.29c3.08,3.83,6.93,6.99,11.28,9.27c4.97,2.66,10.28,4.64,15.79,5.87
					c12.47,2.81,25.41,2.81,37.88,0c5.51-1.23,10.82-3.2,15.79-5.87c4.36-2.28,8.2-5.44,11.28-9.27c6.1-7.33,6.1-17.96,0-25.29
					c-0.99-1.34-2.62-2.04-4.28-1.84c-1.65,0.21-3.06,1.29-3.69,2.84c-0.63,1.54-0.37,3.31,0.68,4.6c3.54,4.02,3.54,10.05,0,14.08
					c-2.32,2.82-5.19,5.13-8.42,6.81c-4.23,2.26-8.76,3.93-13.44,4.97c-11.1,2.48-22.61,2.48-33.71,0
					c-4.69-1.04-9.21-2.71-13.44-4.97c-3.24-1.68-6.11-4-8.43-6.81c-3.54-4.02-3.54-10.05,0-14.08
					C220.62,276.05,223.49,273.73,226.73,272.05z"/>
			</g>
		</g>
	</g>
</g>
</svg>
